<svg width="30" height="31" viewBox="0 0 30 31" fill="none" xmlns="http://www.w3.org/2000/svg">
<path d="M29.4605 29.2286C29.3238 29.433 28.2985 31 25.7011 31C21.3948 31 19.2758 29.5692 19.2758 21.8703C19.2758 15.6703 16.1999 15.0571 11.5518 15.0571H7.92905V30.1824H11.8252V30.3868H0V30.1824H3.89617V0.613179H0V0.408783H11.8936C18.1138 0.408783 22.4884 2.589 22.4884 8.03955C22.4884 12.4 19.0707 14.5802 14.286 14.9209C20.2327 15.3297 23.8555 17.6461 23.8555 23.8461C23.8555 28.4791 24.2656 30.5231 26.7264 30.5231C28.1618 30.5231 29.1871 29.3648 29.3922 29.0923L29.4605 29.2286ZM12.5771 14.8527C17.1568 14.8527 18.1821 11.5143 18.1821 8.03955C18.1821 4.01977 17.2252 0.613179 11.9619 0.613179H7.9974V14.8527H12.5771Z" fill="#383735"/>
</svg>
