<svg width="23" height="31" viewBox="0 0 23 31" fill="none" xmlns="http://www.w3.org/2000/svg">
<path d="M22.4524 22.2791C22.4524 27.3209 18.3511 30.8637 11.5157 30.8637C7.96135 30.8637 5.09048 29.0923 3.10822 29.0923C2.01456 29.0923 1.46773 29.9099 1.19432 30.6593H0.989258V21.1209H1.19432C2.35633 25.8901 5.43226 30.7275 11.5841 30.7275C16.3005 30.7275 19.3081 28.4791 19.3081 24.3231C19.3081 20.0989 15.0701 18.8725 9.94361 16.6242C4.20188 14.1714 1.60444 12.1275 1.60444 7.76703C1.60444 3.33846 5.70567 0.0681305 10.9689 0.0681305C14.7284 0.0681305 16.0271 1.83956 17.736 1.83956C18.8296 1.83956 19.103 1.43077 19.4448 0.681317H19.6499V8.24395H19.4448C18.2144 3.47472 15.5486 0.340658 10.9689 0.340658C6.52592 0.340658 4.4753 2.86154 4.4753 5.51868C4.4753 7.9033 5.56897 10.0154 11.7208 12.4C20.4701 15.7385 22.4524 18.2593 22.4524 22.2791Z" fill="#383735"/>
</svg>
