<svg width="33" height="34" viewBox="0 0 33 34" fill="none" xmlns="http://www.w3.org/2000/svg">
<path d="M21 33.25H3L3.75 16.75H20.25L21 33.25Z" stroke="#383735" stroke-miterlimit="10" stroke-linecap="round" stroke-linejoin="round"/>
<path d="M8.25 19.75V14.5C8.25 13.5054 8.64509 12.5516 9.34835 11.8483C10.0516 11.1451 11.0054 10.75 12 10.75C12.4925 10.75 12.9801 10.847 13.4351 11.0355C13.89 11.2239 14.3034 11.5001 14.6517 11.8483C14.9999 12.1966 15.2761 12.61 15.4645 13.0649C15.653 13.5199 15.75 14.0075 15.75 14.5V19.75" stroke="#383735" stroke-miterlimit="10" stroke-linecap="round" stroke-linejoin="round"/>
<circle cx="22" cy="11" r="11" fill="#383735"/>
<path d="M17.6303 16V8.832H15.9783V7.824C16.4263 7.74 16.809 7.642 17.1263 7.53C17.453 7.40867 17.7563 7.264 18.0363 7.096H19.2403V16H17.6303ZM24.7374 16.168C24.252 16.168 23.8134 16.0653 23.4214 15.86C23.0387 15.6453 22.7074 15.342 22.4274 14.95C22.1567 14.5487 21.9467 14.0587 21.7974 13.48C21.648 12.9013 21.5734 12.2433 21.5734 11.506C21.5734 10.0313 21.858 8.902 22.4274 8.118C22.9967 7.32467 23.7667 6.928 24.7374 6.928C25.708 6.928 26.478 7.32467 27.0474 8.118C27.6167 8.902 27.9014 10.0313 27.9014 11.506C27.9014 12.2433 27.8267 12.9013 27.6774 13.48C27.528 14.0587 27.3134 14.5487 27.0334 14.95C26.7627 15.342 26.4314 15.6453 26.0394 15.86C25.6567 16.0653 25.2227 16.168 24.7374 16.168ZM24.7374 14.852C24.9707 14.852 25.1807 14.796 25.3674 14.684C25.554 14.5627 25.7127 14.3713 25.8434 14.11C25.9834 13.8393 26.0907 13.494 26.1654 13.074C26.24 12.6447 26.2774 12.122 26.2774 11.506C26.2774 10.89 26.24 10.3767 26.1654 9.966C26.0907 9.546 25.9834 9.21 25.8434 8.958C25.7127 8.706 25.554 8.524 25.3674 8.412C25.1807 8.3 24.9707 8.244 24.7374 8.244C24.504 8.244 24.2894 8.3 24.0934 8.412C23.9067 8.524 23.748 8.706 23.6174 8.958C23.4867 9.21 23.384 9.546 23.3094 9.966C23.2347 10.3767 23.1974 10.89 23.1974 11.506C23.1974 12.122 23.2347 12.6447 23.3094 13.074C23.384 13.494 23.4867 13.8393 23.6174 14.11C23.748 14.3713 23.9067 14.5627 24.0934 14.684C24.2894 14.796 24.504 14.852 24.7374 14.852Z" fill="white"/>
</svg>
