<svg width="39" height="38" viewBox="0 0 39 38" fill="none" xmlns="http://www.w3.org/2000/svg">
<circle cx="19.3419" cy="18.8292" r="18.3292" stroke="#383735"/>
<g clip-path="url(#clip0_651_4848)">
<path d="M28.3601 13.9854C28.4919 13.5476 28.3601 13.2266 27.7368 13.2266H25.6722C25.1469 13.2266 24.9068 13.5043 24.775 13.8093C24.775 13.8093 23.7253 16.3692 22.2378 18.0289C21.7576 18.5119 21.5383 18.6644 21.2765 18.6644C21.1457 18.6644 20.9555 18.5119 20.9555 18.0741V13.9854C20.9555 13.46 20.8039 13.2266 20.3662 13.2266H17.1219C16.7943 13.2266 16.5965 13.4695 16.5965 13.7011C16.5965 14.1981 17.3403 14.313 17.4166 15.7139V18.7529C17.4166 19.4185 17.297 19.54 17.0334 19.54C16.3339 19.54 14.6317 16.9707 13.6215 14.0296C13.4248 13.4582 13.2261 13.2275 12.6989 13.2275H10.6352C10.0449 13.2275 9.92725 13.5052 9.92725 13.8103C9.92725 14.3582 10.6268 17.0696 13.1856 20.6556C14.8916 23.1044 17.2932 24.4318 19.4812 24.4318C20.7926 24.4318 20.9546 24.1371 20.9546 23.6287V21.7778C20.9546 21.1885 21.0798 21.0699 21.495 21.0699C21.8 21.0699 22.3253 21.2243 23.5502 22.4039C24.9492 23.8029 25.1808 24.4309 25.9669 24.4309H28.0306C28.6199 24.4309 28.9146 24.1362 28.7451 23.5544C28.5597 22.9754 27.8912 22.1328 27.0044 21.1358C26.5224 20.5671 25.8021 19.9552 25.5828 19.6492C25.2768 19.2547 25.3653 19.0806 25.5828 18.7303C25.5837 18.7313 28.0984 15.1895 28.3601 13.9854V13.9854Z" fill="#383735"/>
</g>
<defs>
<clipPath id="clip0_651_4848">
<rect width="18.8292" height="18.8292" fill="white" transform="translate(9.92725 9.41455)"/>
</clipPath>
</defs>
</svg>
