<svg width="39" height="38" viewBox="0 0 39 38" fill="none" xmlns="http://www.w3.org/2000/svg">
<circle cx="19.6588" cy="18.8292" r="18.3292" stroke="#383735"/>
<path d="M19.6589 15.924C18.0592 15.924 16.7538 17.2294 16.7538 18.829C16.7538 20.4286 18.0592 21.734 19.6589 21.734C21.2585 21.734 22.5639 20.4286 22.5639 18.829C22.5639 17.2294 21.2585 15.924 19.6589 15.924ZM28.3717 18.829C28.3717 17.626 28.3826 16.4339 28.3151 15.2332C28.2475 13.8384 27.9293 12.6006 26.9094 11.5806C25.8873 10.5585 24.6516 10.2425 23.2569 10.175C22.0539 10.1074 20.8618 10.1183 19.661 10.1183C18.4581 10.1183 17.266 10.1074 16.0652 10.175C14.6704 10.2425 13.4326 10.5607 12.4127 11.5806C11.3906 12.6027 11.0746 13.8384 11.007 15.2332C10.9395 16.4361 10.9504 17.6282 10.9504 18.829C10.9504 20.0298 10.9395 21.2241 11.007 22.4249C11.0746 23.8196 11.3928 25.0575 12.4127 26.0774C13.4348 27.0995 14.6704 27.4155 16.0652 27.483C17.2682 27.5506 18.4602 27.5397 19.661 27.5397C20.864 27.5397 22.0561 27.5506 23.2569 27.483C24.6516 27.4155 25.8895 27.0973 26.9094 26.0774C27.9315 25.0553 28.2475 23.8196 28.3151 22.4249C28.3848 21.2241 28.3717 20.032 28.3717 18.829ZM19.6589 23.2988C17.1853 23.2988 15.1891 21.3025 15.1891 18.829C15.1891 16.3555 17.1853 14.3593 19.6589 14.3593C22.1324 14.3593 24.1286 16.3555 24.1286 18.829C24.1286 21.3025 22.1324 23.2988 19.6589 23.2988ZM24.3117 15.2201C23.7342 15.2201 23.2678 14.7537 23.2678 14.1762C23.2678 13.5987 23.7342 13.1323 24.3117 13.1323C24.8892 13.1323 25.3556 13.5987 25.3556 14.1762C25.3557 14.3133 25.3288 14.4491 25.2764 14.5759C25.224 14.7026 25.1472 14.8177 25.0502 14.9147C24.9532 15.0117 24.8381 15.0886 24.7114 15.141C24.5846 15.1934 24.4488 15.2202 24.3117 15.2201Z" fill="#383735"/>
</svg>
