<svg width="7" height="6" viewBox="0 0 7 6" fill="none" xmlns="http://www.w3.org/2000/svg">
<path d="M3.89137 1.14945C3.89137 0.945056 3.6863 0.740662 3.48124 0.740662C3.27617 0.740662 3.07113 0.945056 3.07113 1.14945C3.07113 2.1033 2.31923 2.85275 1.36228 2.85275C1.15721 2.85275 0.952148 3.05714 0.952148 3.26154C0.952148 3.46594 1.15721 3.67033 1.36228 3.67033C2.31923 3.67033 3.07113 4.41978 3.07113 5.37363C3.07113 5.57802 3.27617 5.78242 3.48124 5.78242C3.6863 5.78242 3.89137 5.57802 3.89137 5.37363C3.89137 4.41978 4.64326 3.67033 5.60022 3.67033C5.80528 3.67033 6.01035 3.46594 6.01035 3.26154C6.01035 3.05714 5.80528 2.85275 5.60022 2.85275C4.64326 2.78462 3.89137 2.03517 3.89137 1.14945Z" fill="#383735"/>
</svg>
